<svg width="48" height="48" viewBox="0 0 48 48" fill="none" xmlns="http://www.w3.org/2000/svg">
<path d="M48 28.5C48 27.298 47.522 26.178 46.698 25.3519C47.632 24.33 48.108 22.9599 47.978 21.534C47.744 18.9919 45.4539 16.9999 42.762 16.9999H30.408C31.02 15.1419 32 11.736 32 8.99997C32 4.66197 28.314 1 26 1C23.924 1 22.4379 2.17 22.376 2.218C22.1379 2.40803 21.9999 2.69603 21.9999 2.99997V9.78194L16.238 22.26L15.9999 22.3819V21.9999C15.9999 21.4479 15.5519 20.9999 14.9999 20.9999H4.99997C2.24203 21 0 23.242 0 25.9999V42C0 44.758 2.24203 46.9999 4.99997 46.9999H11C13.1619 46.9999 15.0099 45.6199 15.7059 43.6939C17.37 44.55 19.61 45 21 45H39.358C41.536 45 43.4421 43.5319 43.89 41.508C44.12 40.464 43.986 39.414 43.53 38.502C45.006 37.7599 46 36.234 46 34.5C46 33.792 45.838 33.114 45.532 32.502C47.008 31.758 48 30.234 48 28.5ZM43.782 30.9679C43.396 31.014 43.07 31.2759 42.946 31.6459C42.8241 32.016 42.9261 32.4219 43.21 32.6899C43.7181 33.168 44.0001 33.8119 44.0001 34.5C44.0001 35.7619 43.0461 36.822 41.7841 36.9679C41.3981 37.014 41.0721 37.2759 40.9481 37.6459C40.8262 38.016 40.9282 38.4219 41.2121 38.6899C41.8702 39.3099 42.1342 40.1799 41.9362 41.076C41.6902 42.192 40.6061 43 39.3581 43H21C19.376 43 16.652 42.238 15.708 41.292C15.422 41.008 14.99 40.924 14.618 41.076C14.244 41.23 14 41.596 14 42C14 43.654 12.654 45 11 45H4.99997C3.34594 45 1.99997 43.654 1.99997 42V25.9999C1.99997 24.3459 3.34594 22.9999 4.99997 22.9999H14V24C14 24.346 14.18 24.6679 14.4759 24.852C14.768 25.0279 15.1359 25.0459 15.4479 24.894L17.4479 23.8939C17.6499 23.7939 17.8119 23.6259 17.9079 23.4199L23.9079 10.4199C23.9679 10.2879 23.9999 10.1439 23.9999 9.99991V3.54194C24.416 3.31197 25.138 2.99997 26 2.99997C27.096 2.99997 30 5.72397 30 8.99997C30 12.52 28.084 17.5939 28.066 17.644C27.9501 17.95 27.99 18.296 28.176 18.568C28.364 18.838 28.672 19 29 19H42.762C44.43 19 45.846 20.194 45.986 21.718C46.092 22.858 45.5439 23.942 44.562 24.548C44.256 24.736 44.074 25.076 44.088 25.438C44.102 25.8 44.31 26.124 44.63 26.29C45.476 26.72 45.9999 27.568 45.9999 28.5C46 29.7619 45.046 30.822 43.782 30.9679Z" fill="#999999"/>
<path d="M15 23C14.448 23 14 23.448 14 24V42C14 42.552 14.448 43.0001 15 43.0001C15.552 43.0001 16.0001 42.552 16.0001 42V24C16.0001 23.448 15.552 23 15 23Z" fill="#999999"/>
</svg>
