<svg width="48" height="48" viewBox="0 0 48 48" fill="none" xmlns="http://www.w3.org/2000/svg">
<g clip-path="url(#clip0)">
<path d="M47.8225 23.4318C47.4445 22.8817 38.3603 9.99951 24.0001 9.99951C11.6779 9.99951 0.697732 22.8077 0.235724 23.3538C-0.0782493 23.7258 -0.0782493 24.2718 0.235724 24.6457C0.697732 25.1917 11.6779 38 24.0001 38C36.3223 38 47.3024 25.1917 47.7644 24.6457C48.0545 24.3018 48.0805 23.8038 47.8225 23.4318ZM24.0001 36C14.122 36 4.72979 26.5798 2.34382 23.9998C4.72586 21.4178 14.108 11.9996 24.0001 11.9996C35.5583 11.9996 43.7164 21.4058 45.7085 23.9458C43.4084 26.4438 33.9622 36 24.0001 36Z" fill="#999999"/>
<path d="M23.9999 16C19.5878 16 15.9998 19.5881 15.9998 24.0001C15.9998 28.4121 19.5878 32.0002 23.9999 32.0002C28.4119 32.0002 32 28.4121 32 24.0001C32 19.5881 28.4119 16 23.9999 16ZM23.9999 30.0003C20.6918 30.0003 17.9998 27.3082 17.9998 24.0002C17.9998 20.6922 20.6918 18.0001 23.9999 18.0001C27.3079 18.0001 30 20.6922 30 24.0002C30 27.3082 27.3079 30.0003 23.9999 30.0003Z" fill="#999999"/>
</g>
<defs>
<clipPath id="clip0">
<rect width="48" height="48" fill="white"/>
</clipPath>
</defs>
</svg>
